PathFileType	4	(X/Y/Z)	Kaydara	
DataRate	CameraRate	NumFrames	NumMarkers	Units	OrigDataRate	OrigDataStartFrame	OrigNumFrames	
240.00	240.00	4	72	mm	240.00	222	355	
Frame#	Time	Hips			RightUpLeg			RightLeg			RightFoot			RightFoot_End			LeftUpLeg			LeftLeg			LeftFoot			LeftFoot_End			Spine			Spine1			Spine2			Spine3			Neck			Head			Head_End			RightShoulder			RightArm			RightForeArm			RightHand			RightHandThumb1			RightHandThumb2			RightHandThumb3			RightHandThumb3_End			RightInHandIndex			RightHandIndex1			RightHandIndex2			RightHandIndex3			RightHandIndex3_End			RightInHandMiddle			RightHandMiddle1			RightHandMiddle2			RightHandMiddle3			RightHandMiddle3_End			RightInHandRing			RightHandRing1			RightHandRing2			RightHandRing3			RightHandRing3_End			RightInHandPinky			RightHandPinky1			RightHandPinky2			RightHandPinky3			RightHandPinky3_End			LeftShoulder			LeftArm			LeftForeArm			LeftHand			LeftHandThumb1			LeftHandThumb2			LeftHandThumb3			LeftHandThumb3_End			LeftInHandIndex			LeftHandIndex1			LeftHandIndex2			LeftHandIndex3			LeftHandIndex3_End			LeftInHandMiddle			LeftHandMiddle1			LeftHandMiddle2			LeftHandMiddle3			LeftHandMiddle3_End			LeftInHandRing			LeftHandRing1			LeftHandRing2			LeftHandRing3			LeftHandRing3_End			LeftInHandPinky			LeftHandPinky1			LeftHandPinky2			LeftHandPinky3			LeftHandPinky3_End			
		X1	Y1	Z1	X2	Y2	Z2	X3	Y3	Z3	X4	Y4	Z4	X5	Y5	Z5	X6	Y6	Z6	X7	Y7	Z7	X8	Y8	Z8	X9	Y9	Z9	X10	Y10	Z10	X11	Y11	Z11	X12	Y12	Z12	X13	Y13	Z13	X14	Y14	Z14	X15	Y15	Z15	X16	Y16	Z16	X17	Y17	Z17	X18	Y18	Z18	X19	Y19	Z19	X20	Y20	Z20	X21	Y21	Z21	X22	Y22	Z22	X23	Y23	Z23	X24	Y24	Z24	X25	Y25	Z25	X26	Y26	Z26	X27	Y27	Z27	X28	Y28	Z28	X29	Y29	Z29	X30	Y30	Z30	X31	Y31	Z31	X32	Y32	Z32	X33	Y33	Z33	X34	Y34	Z34	X35	Y35	Z35	X36	Y36	Z36	X37	Y37	Z37	X38	Y38	Z38	X39	Y39	Z39	X40	Y40	Z40	X41	Y41	Z41	X42	Y42	Z42	X43	Y43	Z43	X44	Y44	Z44	X45	Y45	Z45	X46	Y46	Z46	X47	Y47	Z47	X48	Y48	Z48	X49	Y49	Z49	X50	Y50	Z50	X51	Y51	Z51	X52	Y52	Z52	X53	Y53	Z53	X54	Y54	Z54	X55	Y55	Z55	X56	Y56	Z56	X57	Y57	Z57	X58	Y58	Z58	X59	Y59	Z59	X60	Y60	Z60	X61	Y61	Z61	X62	Y62	Z62	X63	Y63	Z63	X64	Y64	Z64	X65	Y65	Z65	X66	Y66	Z66	X67	Y67	Z67	X68	Y68	Z68	X69	Y69	Z69	X70	Y70	Z70	X71	Y71	Z71	X72	Y72	Z72	

222	0.921	-78.98710000000028	906.651	56.2195	-34.913620000000265	874.00624	-19.509169999999997	-123.55504000000019	469.26320000000004	-79.93831	-48.505559999999605	101.01093	-181.90566	-123.15283999999974	22.43701	-24.44921	-114.62144999999964	910.5842000000002	143.2969	-177.6503499999999	506.69971999999996	234.80366999999998	-244.7821699999995	72.41557000000002	279.05553999999995	-371.22563999999966	-10.926970000000003	162.41642999999996	-118.35187000000042	1035.35259	7.613430000000001	-167.92169999999987	1104.7769099999998	-38.9391	-224.72090000000026	1171.33459	-89.67738000000001	-286.67139000000043	1224.8770699999998	-142.02796000000004	-353.3974500000004	1281.9023	-197.43243999999999	-415.31718	1333.60575	-246.92044	-538.4148100000002	1422.8161799999998	-295.1772900000001	-315.21645999999964	1256.8744399999998	-204.92966	-268.69272999999976	1239.17166	-321.78532	-339.4512599999998	985.4992000000001	-354.41386	-393.8417899999995	867.39055	-579.1139899999998	-395.7116699999997	890.0094399999999	-612.00488	-420.57250999999997	897.3054200000001	-638.17671	-438.5803999999998	897.97582	-656.33619	-454.18718999999965	894.7616099999999	-671.41798	-396.3007600000001	876.67397	-616.0496899999999	-411.61545000000024	872.7708300000002	-666.76886	-433.34677999999985	867.9188	-695.3029	-451.18123000000014	867.62558	-705.44971	-468.85953999999947	869.21982	-708.7266400000001	-398.18382999999994	864.7123800000002	-613.78187	-414.1367	854.4359399999998	-662.02708	-438.06253000000015	847.5730999999998	-692.6911900000001	-459.6811800000005	846.46676	-704.7063300000001	-479.0740599999999	847.8453000000001	-708.18172	-399.0185599999995	856.3531900000002	-610.9636899999999	-413.7333400000007	839.8638899999999	-651.98378	-434.78052000000025	832.2955200000001	-678.1512	-455.73611000000074	830.38576	-689.4435899999999	-474.0189700000001	831.28263	-692.5705	-400.36294	846.89425	-605.6292700000001	-414.3411699999997	825.91113	-640.2431599999999	-431.43321000000014	817.4472	-660.14467	-446.8335499999994	814.89158	-667.8723099999999	-463.09551999999985	815.0169600000002	-670.34926	-347.40921999999955	1269.9735600000001	-151.66693	-390.3351900000007	1239.1084800000003	-34.63192999999999	-379.37948999999935	1031.36701	-198.15651	-379.7652500000004	857.34293	-390.00354	-411.5015799999992	871.7054300000001	-409.58529	-435.7063500000004	859.14028	-434.3341	-452.63497000000007	846.75306	-448.97919	-466.80958999999984	833.3151400000002	-458.9725000000001	-416.0509200000006	861.7025799999999	-400.99526	-465.8065999999999	847.4410499999998	-412.96146999999996	-493.0711799999999	828.3474600000001	-427.17629	-502.0615400000006	815.5133	-440.42653999999993	-504.1335599999993	804.2404400000001	-454.37041999999997	-414.16625999999997	851.8715000000001	-393.81426	-461.6791400000002	832.6462199999999	-401.59985000000006	-491.0109600000005	810.5489400000001	-416.13206	-501.65628000000015	794.4592099999999	-431.6482399999999	-503.82562999999936	781.8301700000001	-446.67699999999996	-411.65018000000055	845.35627	-388.3611900000001	-452.2960700000003	822.66542	-390.3875	-477.3574499999995	802.1446199999999	-402.04177	-487.3578499999994	785.95529	-416.4708999999999	-489.27064000000064	773.76354	-430.34704	-406.63828999999987	837.7365000000001	-382.31511000000006	-441.1303200000002	812.44553	-380.20069	-460.23381999999947	794.1448299999998	-387.94578	-467.0614800000003	781.43246	-397.7026599999999	-468.48732999999993	770.11239	-409.5527900000001
223	0.925	-78.98710000000028	906.651	56.2195	-36.288039999999455	873.5136900000001	-20.08052	-124.29171000000042	468.56718	-80.07703000000001	-48.20350000000053	100.74475999999999	-182.82311000000004	-122.83301000000029	21.970390000000002	-25.45843	-113.2820099999999	911.04403	143.81122999999997	-175.63890999999967	507.19239999999996	235.9214	-244.37775000000056	73.04716999999998	279.0552200000001	-370.62888999999996	-10.51128	162.36227	-118.16089999999986	1035.51557	7.89175	-167.55166000000008	1105.2104800000002	-38.446290000000005	-224.29286000000047	1171.96102	-88.99574	-286.4670900000001	1225.38443	-141.20253999999997	-353.43789000000015	1282.2762599999999	-196.44864	-415.5794999999998	1333.8635299999999	-245.77952999999997	-538.8811100000003	1422.9377900000002	-293.7663900000001	-315.54923000000053	1256.86033	-204.12131999999997	-269.02514000000065	1239.15436	-320.97636	-342.22087999999985	985.6414399999998	-349.16659000000004	-400.9335199999996	862.2412399999998	-569.9002300000001	-403.34391999999934	883.96302	-603.35581	-428.6350000000002	890.5669799999998	-629.2981900000001	-446.94268999999986	890.7594099999999	-647.1669200000001	-462.7995600000004	887.15011	-661.89431	-404.0045199999995	870.5234100000001	-607.02771	-420.1632099999997	865.2606299999999	-657.3606799999999	-442.3683799999999	859.65471	-685.3872399999999	-460.3694799999994	859.1006099999998	-695.22415	-478.09942000000046	860.6191200000001	-698.24836	-405.8533100000004	858.6290300000001	-604.40582	-422.6109000000006	847.0627399999998	-652.0829099999999	-447.0463799999998	839.3907699999999	-682.1475	-468.86253000000033	837.97619	-693.7667899999999	-488.3101800000004	839.275	-696.95497	-406.6436100000001	850.3498200000001	-601.3488499999999	-422.04487999999947	832.7675700000001	-641.65684	-443.5274300000001	824.5098300000001	-667.2558199999999	-464.66881999999987	822.31116	-678.14202	-483.00095000000056	823.13707	-680.9873399999999	-407.90192000000025	841.0397699999999	-595.73864	-422.46144000000004	819.13816	-629.5342600000001	-439.8852999999999	810.1517599999999	-648.91208	-455.41304000000036	807.3997099999999	-656.31029	-471.71396000000004	807.4704499999999	-658.51873	-346.96921999999995	1270.8426500000003	-150.62217	-388.35707	1241.82478	-32.565020000000004	-381.1450100000002	1031.9187200000001	-193.51302999999996	-384.9817700000003	852.8513400000002	-380.62253000000004	-417.25288999999975	866.57848	-399.78138999999993	-441.54805000000033	853.5212399999999	-424.18448	-458.43435000000045	840.79374	-438.58462000000003	-472.4836099999993	827.0742	-448.37013	-421.4913999999999	856.50057	-391.1204	-471.12299000000075	841.2723899999999	-402.39054999999996	-498.20769999999993	821.64193	-416.2125500000001	-507.13027000000056	808.6216	-429.32628	-509.17590999999993	797.2942	-443.2298	-419.3202600000004	846.7161600000001	-383.95658000000003	-466.5571800000007	826.5732400000002	-391.07251999999994	-495.65520000000015	803.89959	-405.1807299999999	-506.2007400000002	787.5898	-420.53443	-508.33246000000054	774.9032800000001	-435.52010000000007	-416.60517999999956	840.2570099999999	-378.53232	-456.8317100000004	816.7879100000002	-379.98028999999997	-481.65139999999974	795.7758799999999	-391.2707999999999	-491.53541999999925	779.3801900000001	-405.54629	-493.4032900000002	767.1371999999999	-419.38338	-411.36567000000014	832.74214	-372.54824	-445.33349	806.7965000000002	-369.93769	-464.18612999999914	788.1232200000001	-377.4030900000001	-470.90117999999984	775.2703800000002	-387.05350999999996	-472.27127999999993	763.9107099999999	-398.87227999999993
224	0.929	-78.98710000000028	906.651	56.2195	-37.756610000000364	872.98663	-20.65534	-125.19586000000072	467.86317	-80.28138	-48.17443999999978	100.45973999999998	-183.82808	-122.77332000000024	21.505450000000007	-26.539060000000003	-111.85455000000002	911.5374699999999	144.33081	-173.4697500000002	507.7282099999999	237.12336999999994	-243.77346999999918	73.72273000000001	279.12642	-369.8306499999999	-10.03873	162.36935	-117.9399800000001	1035.68379	8.162789999999998	-167.15322000000015	1105.64641	-37.96020000000001	-223.8394699999999	1172.5915	-88.31366	-286.24100999999973	1225.91134	-140.35485999999995	-353.4631900000004	1282.6824600000002	-195.41954	-415.83474000000024	1334.1618599999997	-244.5726	-539.3378000000002	1423.09681	-292.2991	-315.8744599999991	1256.87815	-203.26902999999996	-269.3553099999999	1239.1782900000003	-320.12696	-344.8692000000001	985.88368	-343.80389999999994	-407.8094799999999	857.12236	-560.26908	-410.78722000000016	877.90466	-594.2712900000001	-436.5081199999995	883.77912	-619.96532	-455.1088300000001	883.4705699999998	-637.52717	-471.2045699999999	879.44967	-651.8841599999998	-411.49938999999995	864.3679899999998	-597.5566200000001	-428.4843899999996	857.7038100000001	-647.44957	-451.14606000000003	851.3157799999999	-674.93821	-469.3069399999995	850.4844699999999	-684.45676	-487.08547	851.9145	-687.2283	-413.2965899999999	852.5507399999999	-594.5747599999999	-430.83226000000013	839.65924	-641.6280200000001	-455.7562399999997	831.1487999999999	-671.0592799999998	-477.7605400000002	829.40695	-682.27224	-497.2590999999993	830.6124499999999	-685.17314	-414.0306699999992	844.3596	-591.2760900000001	-430.0843500000001	825.65972	-630.81927	-451.9815900000003	816.68858	-655.8198200000002	-473.2985699999999	814.18348	-666.28943	-491.6757800000005	814.9260399999998	-668.8529500000001	-415.18980999999985	835.2089200000003	-585.38911	-430.2912899999992	812.37268	-618.3171499999999	-448.02706000000035	802.84707	-637.1466700000001	-463.67311999999947	799.8870100000001	-644.2076	-480.0083800000002	799.8928299999999	-646.14718	-346.50175000000036	1271.7353999999998	-149.54648999999995	-386.30188	1244.5667000000003	-30.50745	-382.7921700000006	1032.52736	-188.75990000000002	-389.98305000000073	848.4560399999999	-370.84738000000004	-423.1226399999996	860.9282200000001	-389.37125000000003	-447.32082999999966	846.96898	-413.36801	-463.94691000000057	833.61131	-427.4976300000001	-477.61441000000013	819.3647000000001	-437.0682800000001	-426.7957499999993	850.6680999999999	-380.66607	-475.97821999999996	833.49519	-391.0768200000001	-502.50665000000026	812.8310099999999	-404.4640600000001	-511.1414100000002	799.496	-417.45367	-512.9879599999995	788.1293900000001	-431.35305000000005	-424.10459999999966	840.9610900000001	-373.57379	-470.62225000000035	818.9631099999999	-379.89014999999995	-499.04581000000053	795.1783799999998	-393.53638	-509.21174000000065	778.4970699999999	-408.74628999999993	-511.10988	765.7715899999998	-423.73033999999996	-421.03471999999965	834.6025999999999	-368.2202500000001	-460.31194999999934	809.5477	-369.00791999999996	-484.47594000000026	787.58752	-379.9097599999999	-493.95777	770.84422	-394.05397999999997	-495.5889499999994	758.5696999999999	-407.89306999999997	-415.39042999999947	827.28881	-362.35636000000005	-448.24162999999953	799.9997799999999	-359.20813000000004	-466.46752000000015	780.6058000000002	-366.387	-472.84002000000055	767.5180599999998	-375.95363	-473.97213999999985	756.1412000000001	-387.78104
225	0.933	-78.98710000000028	906.651	56.2195	-39.1872800000001	872.45731	-21.17397	-126.11184000000048	467.16759999999994	-80.42156	-48.1856800000005	100.20065999999998	-184.83551	-122.76926999999978	21.052030000000002	-27.63693	-110.4685499999996	912.0371200000001	144.80651000000003	-171.27840000000015	508.28999000000005	238.39721999999998	-243.04983999999968	74.42017999999999	279.30539999999996	-368.90592000000015	-9.56533	162.49233	-117.70401000000038	1035.8344	8.377210000000002	-167.0105599999997	1105.81049	-37.62553	-223.84627	1172.7320800000002	-87.84156000000002	-286.47584000000006	1225.96251	-139.70004999999998	-353.95939	1282.61572	-194.56611	-416.5771400000003	1333.9796700000002	-243.52654999999996	-540.2821999999996	1422.76995	-290.99857999999995	-316.67684999999983	1256.42405	-202.59099000000003	-270.1624300000003	1238.7268799999997	-319.45121	-347.8909400000002	985.7143999999998	-338.53181	-414.91155999999955	851.51291	-550.41934	-418.4845999999998	871.30883	-584.9487000000001	-444.63382	876.4091800000001	-610.3743199999999	-463.5190699999994	875.57189	-627.6122600000001	-479.8402699999997	871.1190300000001	-641.58202	-419.22522000000026	857.68264	-587.8332699999999	-437.0126799999998	849.5687500000001	-637.22941	-460.1095999999998	842.36454	-664.1480999999999	-478.4223600000005	841.2356399999999	-673.3393800000001	-496.2465400000001	842.5609000000001	-675.8583	-420.95129	845.9531300000001	-584.48543	-439.23121999999967	831.69503	-630.8562300000001	-464.61799000000065	822.3104999999999	-659.6186	-486.7997000000005	820.2175399999999	-670.4141800000002	-506.34537999999975	821.31225	-673.02771	-421.61597000000074	837.85879	-580.94215	-438.2802499999998	818.01182	-619.6651200000001	-460.5672599999998	808.2978799999999	-644.0357300000001	-482.0481600000003	805.46424	-654.07782	-500.4662499999995	806.10742	-656.35933	-422.6614500000005	828.87884	-574.77755	-438.2575999999999	805.08797	-606.78628	-456.28160000000025	795.0023100000001	-625.04171	-472.03566000000046	791.8194199999999	-631.75711	-488.4004699999996	791.7469000000001	-633.4274799999998	-346.4920000000002	1272.1520100000002	-148.65984999999998	-384.65903999999955	1246.8340199999998	-28.681689999999993	-384.8055800000002	1032.6656	-184.08021999999997	-395.22869999999966	843.6414599999999	-360.85986	-430.2689100000007	852.70277	-377.80088	-453.89411999999993	836.4645	-400.9185100000001	-469.62896999999975	821.5433499999999	-414.49326999999994	-482.13241000000016	806.01358	-423.65044	-432.46344000000045	842.0446000000001	-369.07565999999997	-479.9822699999995	819.87391	-377.59797	-504.75737000000026	796.6390899999999	-390.10079999999994	-512.5052100000003	782.5724800000002	-402.87627999999995	-513.7546700000003	771.1848400000002	-416.82487000000003	-428.4631300000001	832.6189700000001	-362.22556000000003	-472.6501699999999	805.8982500000001	-366.83086999999995	-498.9924200000005	779.3629	-379.55065	-508.00764999999956	761.82508	-394.52075	-509.2132499999998	749.08931	-409.56766000000005	-424.51328999999987	826.5767600000001	-357.08695	-460.9452600000004	797.53448	-356.51498	-483.12701000000015	773.2400799999999	-366.65152999999987	-491.40959999999995	755.7041899999999	-380.58686	-492.3473100000001	743.4359099999999	-394.49567	-417.8832999999995	819.8514800000002	-351.55986000000007	-447.52502000000004	789.2327200000001	-347.35696	-463.91366000000016	768.0856900000001	-353.99484999999993	-469.2905099999998	754.476	-363.44385	-469.7387399999998	743.1369799999998	-375.35301999999996
